HIERARCHY
ROOT Hips
{
	OFFSET 0.000000 0.000000 0.000000
	CHANNELS 6 Xposition Yposition Zposition Xrotation Yrotation Zrotation
	JOINT LeftUpLeg_virtual
	{
		OFFSET 0.000000 0.000000 0.000000
		CHANNELS 3 Xrotation Yrotation Zrotation
		JOINT LeftUpLeg
		{
			OFFSET 10.205400 -3.823500 0.155100
			CHANNELS 3 Xrotation Yrotation Zrotation
			JOINT LeftLeg
			{
				OFFSET 0.708757 -12.982077 0.567790
				CHANNELS 3 Xrotation Yrotation Zrotation
				JOINT LeftFoot
				{
					OFFSET -0.708756 -10.717838 -2.184338
					CHANNELS 3 Xrotation Yrotation Zrotation
					JOINT LeftToeBase
					{
						OFFSET 0.108149 -7.191104 7.560241
						CHANNELS 3 Xrotation Yrotation Zrotation
						JOINT LeftToe_End
						{
							OFFSET 0.070230 0.081724 4.490308
							CHANNELS 3 Xrotation Yrotation Zrotation
							End Site
							{
								OFFSET 0 0 0
							}
						}
					}
				}
			}
		}
	}
	JOINT RightUpLeg_virtual
	{
		OFFSET 0.000000 0.000000 0.000000
		CHANNELS 3 Xrotation Yrotation Zrotation
		JOINT RightUpLeg
		{
			OFFSET -10.205400 -3.823500 0.005500
			CHANNELS 3 Xrotation Yrotation Zrotation
			JOINT RightLeg
			{
				OFFSET -0.708756 -12.982134 0.610632
				CHANNELS 3 Xrotation Yrotation Zrotation
				JOINT RightFoot
				{
					OFFSET 0.708754 -10.717769 -1.945823
					CHANNELS 3 Xrotation Yrotation Zrotation
					JOINT RightToeBase
					{
						OFFSET -0.108140 -7.191069 7.372968
						CHANNELS 3 Xrotation Yrotation Zrotation
						JOINT RightToe_End
						{
							OFFSET -0.070227 0.081735 4.479403
							CHANNELS 3 Xrotation Yrotation Zrotation
							End Site
							{
								OFFSET 0 0 0
							}
						}
					}
				}
			}
		}
	}
	JOINT Spine_virtual
	{
		OFFSET 0.000000 0.000000 0.000000
		CHANNELS 3 Xrotation Yrotation Zrotation
		JOINT Spine
		{
			OFFSET 0.000000 6.876099 0.125700
			CHANNELS 3 Xrotation Yrotation Zrotation
			JOINT Spine1
			{
				OFFSET 0.000000 5.730043 0.104720
				CHANNELS 3 Xrotation Yrotation Zrotation
				JOINT Spine1_split
				{
					OFFSET 0.000000 5.730043 0.104720
					CHANNELS 3 Xrotation Yrotation Zrotation
					JOINT Spine2
					{
						OFFSET 0.000000 5.730043 0.104720
						CHANNELS 3 Xrotation Yrotation Zrotation
						JOINT Neck_virtual
						{
							OFFSET 0.000000 0.000000 0.000000
							CHANNELS 3 Xrotation Yrotation Zrotation
							JOINT Neck
							{
								OFFSET 0.000000 10.314075 0.188496
								CHANNELS 3 Xrotation Yrotation Zrotation
								JOINT Head
								{
									OFFSET 0.000000 7.643700 -2.377400
									CHANNELS 3 Xrotation Yrotation Zrotation
									JOINT HeadTop_End
									{
										OFFSET 0.000000 43.788605 -13.619600
										CHANNELS 3 Xrotation Yrotation Zrotation
										End Site
										{
											OFFSET 0 0 0
										}
									}
								}
							}
						}
						JOINT LeftShoulder_virtual
						{
							OFFSET 0.000000 0.000000 0.000000
							CHANNELS 3 Xrotation Yrotation Zrotation
							JOINT LeftShoulder
							{
								OFFSET 2.196100 4.412489 0.087492
								CHANNELS 3 Xrotation Yrotation Zrotation
								JOINT LeftShoulder_split
								{
									OFFSET 2.196100 4.412489 0.087492
									CHANNELS 3 Xrotation Yrotation Zrotation
									JOINT LeftArm
									{
										OFFSET 8.771219 -2.981674 -0.026999
										CHANNELS 3 Xrotation Yrotation Zrotation
										JOINT LeftForeArm
										{
											OFFSET 8.512804 0.000000 -0.000000
											CHANNELS 3 Xrotation Yrotation Zrotation
											JOINT LeftHand
											{
												OFFSET 18.484802 0.000000 -0.000000
												CHANNELS 3 Xrotation Yrotation Zrotation
												End Site
												{
													OFFSET 0 0 0
												}
											}
										}
									}
								}
							}
						}
						JOINT RightShoulder_virtual
						{
							OFFSET 0.000000 0.000000 0.000000
							CHANNELS 3 Xrotation Yrotation Zrotation
							JOINT RightShoulder
							{
								OFFSET -2.196100 4.412496 0.070690
								CHANNELS 3 Xrotation Yrotation Zrotation
								JOINT RightShoulder_split
								{
									OFFSET -2.196100 4.412496 0.070690
									CHANNELS 3 Xrotation Yrotation Zrotation
									JOINT RightArm
									{
										OFFSET -8.771282 -2.981682 -0.094208
										CHANNELS 3 Xrotation Yrotation Zrotation
										JOINT RightForeArm
										{
											OFFSET -8.494598 0.000000 0.000000
											CHANNELS 3 Xrotation Yrotation Zrotation
											JOINT RightHand
											{
												OFFSET -18.483803 0.000000 0.000001
												CHANNELS 3 Xrotation Yrotation Zrotation
												End Site
												{
													OFFSET 0 0 0
												}
											}
										}
									}
								}
							}
						}
					}
				}
			}
		}
	}
}
MOTION
Frames: 4
Frame Time: 0.03333333
-1.263990 30.739017 2.571205 0.000000 0.000000 0.000000 32.519955 -8.394920 -4.596296 -61.685242 6.847219 0.540622 71.913586 -10.672949 1.610231 -2.567309 -0.453664 13.840852 -23.195186 -2.332123 4.088751 0.000000 0.000000 0.000000 30.856356 -8.559040 -4.695702 -26.832793 -19.668819 5.167971 40.403171 -3.298819 1.159132 -43.237392 3.978753 3.639170 -3.140226 -3.672614 -0.695677 0.000000 0.000000 0.000000 29.921607 -4.437736 -5.015545 3.721654 4.180723 1.086493 -0.266469 1.668996 -0.510747 0.125468 -0.548528 -0.196324 0.000000 0.000000 0.000000 0.138558 1.566121 -0.316860 -11.356720 0.119872 3.104586 -10.536427 3.670349 -3.147048 0.000000 0.000000 0.000000 -0.850863 1.878104 -0.533910 1.236645 0.955492 -19.906243 2.943503 -2.031049 0.154660 18.771674 -3.969457 -42.521394 2.573041 -68.052692 0.521484 0.000000 0.000000 0.000000 0.005217 1.528046 -0.980655 1.621053 3.947021 18.015322 2.635050 2.252132 -2.450781 7.809913 -11.345465 51.470082 -0.013819 67.040643 1.152186 0.000000 0.000000 0.000000 
-1.352150 30.535229 3.798407 0.000000 0.000000 0.000000 31.758990 -10.502007 -4.295731 -65.545104 7.956498 1.294095 67.035971 -10.401294 0.650736 -2.496089 -0.757730 13.418853 -20.727403 -1.734601 3.394219 0.000000 0.000000 0.000000 31.915210 -8.767319 -4.527962 -25.440945 -18.854529 5.723124 41.498699 -4.285326 1.968500 -41.750542 2.099665 4.062301 -8.462697 -3.898885 -0.174857 0.000000 0.000000 0.000000 29.423181 -4.064892 -5.456265 4.252477 4.421393 0.855443 -0.070242 1.777502 -0.472689 0.362886 0.847104 -0.165667 0.000000 0.000000 0.000000 -0.129089 1.584752 -0.366000 -11.643281 0.031700 3.060062 -10.730715 3.545093 -2.999134 0.000000 0.000000 0.000000 -0.759007 1.981798 -0.534722 1.255990 0.910988 -19.575573 2.330096 -1.639277 -0.165615 18.565841 -4.061579 -43.041083 2.623720 -68.334841 0.753728 0.000000 0.000000 0.000000 0.084892 1.624121 -1.052469 1.638051 4.338199 17.872616 3.088591 2.691899 -2.552367 7.736848 -10.819669 51.298259 0.120753 68.144456 0.938275 0.000000 0.000000 0.000000 
-1.591434 30.298388 5.414054 0.000000 0.000000 0.000000 31.247234 -12.946063 -3.613703 -71.679536 8.178341 2.107042 63.469144 -9.762365 -0.131032 -0.821470 0.291701 12.977832 -14.590104 -0.751303 1.590326 0.000000 0.000000 0.000000 32.410224 -9.051111 -4.384734 -22.443264 -16.829241 6.230817 42.216074 -5.145217 2.661177 -42.476397 -0.291398 3.158038 -7.944640 -3.282344 -0.229494 0.000000 0.000000 0.000000 28.794708 -4.234083 -5.649188 4.864471 4.761724 0.435545 0.204363 1.953975 -0.466198 0.623937 2.109016 0.178973 0.000000 0.000000 0.000000 -0.296027 1.666735 -0.467389 -12.074256 -0.009290 2.828745 -11.216058 3.189872 -2.692306 0.000000 0.000000 0.000000 -0.569921 2.119563 -0.544688 1.325004 0.990795 -18.972488 1.812864 -1.394044 -0.481384 18.159228 -4.156804 -43.986623 2.849481 -68.567306 1.259740 0.000000 0.000000 0.000000 0.134574 1.771726 -1.144556 1.662029 4.927669 17.606720 3.564931 3.066201 -2.565221 8.556388 -10.410975 51.279851 0.150768 70.027703 0.794418 0.000000 0.000000 0.000000 
-1.956584 30.083082 7.122555 0.000000 0.000000 0.000000 30.858368 -14.736324 -2.645774 -77.730059 7.762984 1.895152 60.683956 -8.492262 -0.245522 1.251919 2.336976 13.118081 -8.072741 -0.041101 -0.149628 0.000000 0.000000 0.000000 32.195732 -9.661662 -4.012754 -18.735364 -14.228123 6.113571 40.693519 -5.497889 2.800565 -44.590299 -2.368456 1.936392 -2.310190 -1.645702 -0.800583 0.000000 0.000000 0.000000 28.663951 -4.536517 -5.510239 5.385861 5.142326 -0.318909 0.441817 2.141866 -0.462200 0.758104 2.504980 0.466564 0.000000 0.000000 0.000000 -0.319583 1.841654 -0.578946 -12.528066 0.026241 2.483596 -11.869725 2.761980 -2.309785 0.000000 0.000000 0.000000 -0.347983 2.284106 -0.532731 1.419448 1.105258 -18.195935 1.509421 -1.283121 -0.760992 17.587005 -4.111509 -45.315088 3.145581 -68.774336 1.910889 0.000000 0.000000 0.000000 0.152157 1.952245 -1.226044 1.704427 5.571460 17.256078 3.823761 3.349466 -2.413991 10.231352 -10.297323 51.506518 0.139011 72.382643 0.669324 0.000000 0.000000 0.000000 
